<svg xmlns="http://www.w3.org/2000/svg" viewBox="0 0 383.99 105.21"><defs><style>.cls-1{fill:#f0ac06;}.cls-2{fill:#fff;}</style></defs><g id="Camada_2" data-name="Camada 2"><g id="Camada_1-2" data-name="Camada 1"><path class="cls-1" d="M25.8,29c.56-.88,1.14-1.75,1.7-2.64,4.79-7.55,9.61-15.09,14.36-22.68a3.26,3.26,0,0,1,3.07-1.75c8.25.05,16.51,0,24.76,0,2,0,2.15.22,1,2Q58.17,23.64,45.6,43.29c-.24.37-.46.76-.73,1.11-.9,1.17-.71,2.12.33,3.15,4,4,7.84,8,11.77,11.93q8,8.06,16,16.09c.31.31.63.62.92,1,.49.6.28.92-.44,1-.38,0-.76,0-1.14,0-8.7,0-17.4,0-26.09,0a3.93,3.93,0,0,1-3.4-1.61c-5.09-6.25-10.23-12.46-15.36-18.67a5.86,5.86,0,0,0-1-1.13,1,1,0,0,0-.86.27,5.39,5.39,0,0,0-.1,1.51q0,8.56-.07,17.14c0,2.4-.08,2.46-2.45,2.46H2.54C.19,77.5,0,77.36,0,75Q0,39.72,0,4.39C0,2.11.2,2,2.57,1.94q10.1,0,20.19,0c2.42,0,2.61.2,2.61,2.6q0,11.15,0,22.28v2Z"/><path class="cls-2" d="M160.45,78.35c-8.93-.26-15.89-.69-22.63-2.76a24.11,24.11,0,0,1-2.52-.86c-1.47-.62-1.68-1.26-.9-2.67.53-.94,1.16-1.82,1.74-2.73,2.09-3.25,4.19-6.5,6.27-9.77a2.2,2.2,0,0,1,2.7-1.13,62.49,62.49,0,0,0,18.35,1.23,20.53,20.53,0,0,0,4.82-1,3.72,3.72,0,0,0,2.84-3.45,3.41,3.41,0,0,0-2.48-3.66c-3.35-1.13-6.75-2.18-10.2-3-5.06-1.2-10.16-2.19-14.74-4.89-5.82-3.43-9.9-8.07-10.84-15-.52-3.78-.37-7.31,2.07-10.67,3.43-4.72,6.45-9.73,9.6-14.65a3.7,3.7,0,0,1,2.52-1.78,77.31,77.31,0,0,1,38,1.71,9.86,9.86,0,0,1,1.26.43c1.39.61,1.69,1.23.92,2.51-2.83,4.66-5.74,9.28-8.62,13.92-.76,1.24-1.77.92-2.83.52-5.95-2.23-12-2.21-18.19-1.05a9.28,9.28,0,0,0-2.51.84,2.8,2.8,0,0,0-.22,5.05,13.28,13.28,0,0,0,3.52,1.4c5,1.3,10.1,2.45,15.13,3.78a44.63,44.63,0,0,1,5.9,2.12c7.5,3.2,12.4,8.47,13.16,16.92.8,9-1.32,16.78-8.95,22.34a28.5,28.5,0,0,1-12.26,5C167.12,77.75,162.82,78.08,160.45,78.35Z"/><path class="cls-1" d="M109.45,1.93h27c.45,0,.89,0,1.34,0,1.78.09,2,.39,1,1.89-3.41,5.34-6.88,10.66-10.27,16a3.11,3.11,0,0,1-3,1.54c-6.09,0-12.19,0-18.28,0-2.93,0-3,.09-3,3s0,6.09,0,9.13c0,2,.28,2.31,2.35,2.32,5.2,0,10.41,0,15.62,0,2.76,0,2.89.13,2.89,2.91,0,4.12,0,8.25,0,12.37,0,2.1-.24,2.29-2.32,2.3-5.33,0-10.67,0-16,0-2.36,0-2.53.17-2.53,2.48,0,6.41,0,12.82,0,19.24,0,2.28-.06,2.34-2.36,2.34H81.14c-2.18,0-2.23-.05-2.23-2.26q0-35.32,0-70.64c0-2.53.13-2.67,2.72-2.68Q95.54,1.92,109.45,1.93Z"/><path class="cls-2" d="M199.09,49.26c0-2.79,0-5.58,0-8.37,0-1.94-.3-2.18-2.23-2.22h-1.71c-2.45,0-2.5,0-2.51-2.38,0-4.38,0-8.76,0-13.14,0-2.18.16-2.24,2.3-2.27h.38c5.23,0,5.17-.07,8-4.6S209,7.51,211.73,3.12a2.44,2.44,0,0,1,2.35-1.29c1.39,0,2.79,0,4.19,0,1.94,0,2.14.25,2.21,2.22,0,.51,0,1,0,1.52q0,6.19,0,12.38c0,2.89,0,2.91,2.83,2.92H235c3.35,0,3.36,0,3.38,3.4,0,4,0,8,0,12,0,2.26-.19,2.38-2.4,2.39H223c-2.24,0-2.46.19-2.46,2.34,0,3.75-.05,7.49.07,11.24.17,5.4,2.77,8,8.15,7.77a57.81,57.81,0,0,0,8.43-1.28c1.68-.32,2-.24,2,1.43,0,4.57,0,9.15,0,13.72,0,1-.25,1.75-1.32,2-8.56,2.08-17.18,2.91-25.74.24-7.5-2.34-11.16-8.07-12.3-15.5-.57-3.74-.62-7.57-.9-11.36Z"/><path class="cls-2" d="M382.87,39.85q0,17.52,0,35c0,2.78-.11,2.88-2.9,2.89q-8,0-16,0c-2.35,0-2.57-.2-2.57-2.45q0-26.18,0-52.36a3.87,3.87,0,0,1,1.44-3.13c6-5.41,11.9-10.87,17.85-16.31a1.37,1.37,0,0,1,.28-.26c.52-.28,1.06-.54,1.59-.81a8.34,8.34,0,0,1,.32,1.61q0,9.43,0,18.85Z"/><path class="cls-1" d="M195.49,96.78c-1,2.23-2,4.49-3.07,6.69-.3.59-1,1.45-1.45,1.39a2.84,2.84,0,0,1-1.68-1.42c-1.08-2.15-2-4.37-3-6.57l-.48,0c0,1.46,0,2.91,0,4.36a11.1,11.1,0,0,1-.11,2.65,1.66,1.66,0,0,1-1.23,1,1.58,1.58,0,0,1-1.12-1.08q-.13-5.9,0-11.8c0-.47.64-1.34.92-1.31a3,3,0,0,1,2,.85,21.6,21.6,0,0,1,1.73,3.59c.65,1.45,1.27,2.91,1.94,4.35a8.57,8.57,0,0,0,.84,1.19,6.38,6.38,0,0,0,.89-1.14c1.06-2.3,2.07-4.63,3.12-6.94.23-.52.41-1.19.83-1.46a2.84,2.84,0,0,1,1.9-.41c.34.06.79.82.8,1.27.07,3.87,0,7.74,0,11.61,0,1-.49,1.37-1.42,1.36s-1.08-.68-1.08-1.44V96.85Z"/><path class="cls-1" d="M11.5,97.86c0-1.65,0-3.3,0-5,0-.82-.29-1.88.93-2.21s1.89.36,2.49,1.27q2.24,3.42,4.55,6.79a7.33,7.33,0,0,0,1,1,9,9,0,0,0,.25-1.44c0-2,0-3.93.05-5.9,0-.91.11-1.84,1.42-1.78s1.23.93,1.23,1.77c0,3.49.07,7,0,10.46a2.6,2.6,0,0,1-.88,2c-1,.53-1.9-.13-2.52-1.08-1.34-2.08-2.7-4.14-4.06-6.21a13.27,13.27,0,0,0-.88-1.24,5.92,5.92,0,0,0-.8-.69,5,5,0,0,0-.24,1c0,2.22,0,4.44,0,6.66,0,.79-.06,1.56-1.14,1.61s-1.36-.69-1.36-1.61c0-1.84,0-3.68,0-5.51Z"/><path class="cls-1" d="M326.64,97H328c2.59,0,3.1.75,2.25,3.26a7.15,7.15,0,0,1-8.49,4.66,7.36,7.36,0,0,1,2.18-14.52,6.65,6.65,0,0,1,5.37,2.79,5,5,0,0,1,.4,1.37,3.55,3.55,0,0,1-1.42.28,5,5,0,0,1-1.81-.87,4.56,4.56,0,0,0-5.79-.33,5.41,5.41,0,0,0-1.56,6.2,4.47,4.47,0,0,0,4.85,2.85,3.9,3.9,0,0,0,3.23-2c.48-.87.37-1.48-.78-1.52a16.63,16.63,0,0,1-2.65-.13c-.43-.09-.76-.65-1.13-1,.39-.32.74-.86,1.17-.93a19.33,19.33,0,0,1,2.85,0Z"/><path class="cls-1" d="M349.52,97.75a7.11,7.11,0,0,1,4.6-6.8c3-1.12,6.42-.41,8.19,1.81a6.09,6.09,0,0,1,.64,1.93,18.47,18.47,0,0,1-2.36-.12c-.31-.06-.55-.5-.84-.75a4.43,4.43,0,0,0-4.8-.69,4.17,4.17,0,0,0-2.63,3.66c-.47,3.75,1.61,6.31,5,6a8.46,8.46,0,0,0,2.56-1.07c.33-.16.54-.67.85-.72a18.8,18.8,0,0,1,2.38-.09,6.75,6.75,0,0,1-.71,1.92,7.37,7.37,0,0,1-8.17,1.9A7.23,7.23,0,0,1,349.52,97.75Z"/><path class="cls-1" d="M78.17,90.08a23.5,23.5,0,0,1,3.71,2c.47.36.41,1.42.59,2.15A12.92,12.92,0,0,1,80,94c-.56-.18-1-.85-1.52-1.06a1.91,1.91,0,0,0-2.61.87c-.52,1.18.19,1.95,1.24,2.37s2.28.77,3.39,1.22A3.51,3.51,0,0,1,83,100.83a4,4,0,0,1-2.41,3.77c-2.31,1.13-5.47.62-6.77-1.21-.4-.57-.72-1.86-.43-2.12a1.53,1.53,0,0,1,2.42.42,2.34,2.34,0,0,0,2.81,1,2.75,2.75,0,0,0,1.64-1.5c.14-.46-.5-1.39-1-1.74a10.7,10.7,0,0,0-2.66-1c-2.73-.88-3.95-2.44-3.56-4.59s2.27-3.5,5-3.48Z"/><path class="cls-1" d="M64.27,96.35c0,1.33.09,2.67,0,4-.24,3-2.57,4.92-5.76,4.84s-5.3-2-5.42-5c-.11-2.66,0-5.33,0-8,0-.81.16-1.54,1.24-1.52s1.23.72,1.24,1.54c0,2.48,0,5,.08,7.43.07,1.91.91,2.86,2.47,3.09a2.92,2.92,0,0,0,3.67-3c.11-2.09,0-4.19,0-6.29a4.72,4.72,0,0,1,.11-1.69c.17-.43.76-1,1.07-1,.47.08,1.19.63,1.22,1,.15,1.51.06,3,.06,4.56Z"/><path class="cls-1" d="M288.76,96.26c0,1.33.07,2.67,0,4-.17,2.9-2.21,4.77-5.28,4.94s-5.54-1.54-5.8-4.33a78.23,78.23,0,0,1-.08-8.93,1.72,1.72,0,0,1,1.1-1.19c.84-.23,1.27.38,1.29,1.21,0,2.47,0,5,.08,7.42s1.05,3.37,3,3.41a2.79,2.79,0,0,0,3.19-3c.07-2.16,0-4.32,0-6.47,0-.51-.13-1.12.09-1.5a2.58,2.58,0,0,1,1.37-1.14c.23-.07,1,.72,1,1.16.13,1.44,0,2.91,0,4.37Z"/><path class="cls-1" d="M207.4,97.8c0-1.77,0-3.55,0-5.32,0-1.39.59-1.94,2-1.9,1.58.06,3.17,0,4.74.08.47,0,.89.64,1.33,1-.44.35-.84.86-1.34,1a7.2,7.2,0,0,1-2.08.07c-1.21,0-2.12.12-2,1.72.1,1.92.24,2.17,2,2.23a4.69,4.69,0,0,1,1.51.08,6.09,6.09,0,0,1,1.29,1,4.78,4.78,0,0,1-1.37,1,8.44,8.44,0,0,1-2.08.08c-1.12,0-1.41.7-1.29,1.65s-.31,2.2,1.26,2.33a26.74,26.74,0,0,1,2.84.14c.49.09.9.64,1.35,1-.41.38-.8,1-1.24,1.09-1.77.13-3.54.09-5.32.07-1,0-1.47-.55-1.46-1.57,0-1.9,0-3.8,0-5.7Z"/><path class="cls-1" d="M94.7,98.89c0-1.33,0-2.66,0-4,.05-1.49-.5-2.27-2.09-2.21a1.88,1.88,0,0,1-1.34-.47c-.58-.65,0-1.55,1.07-1.58,2.47-.06,4.94-.07,7.41,0,.44,0,.86.66,1.29,1-.45.34-.87.88-1.36,1-2.23.4-2.25.35-2.27,2.59,0,2.66,0,5.32,0,8,0,1-.13,1.81-1.41,1.77s-1.24-.9-1.26-1.74c0-1.46,0-2.91,0-4.37Z"/><path class="cls-1" d="M228.56,90.62a34.35,34.35,0,0,1,3.8,0c.44.06.81.7,1.22,1.08-.4.31-.76.83-1.2.91-2.4.46-2.4.42-2.41,2.85s0,5.07,0,7.61c0,.88,0,1.87-1.29,1.88s-1.36-.91-1.37-1.83c0-2.79-.06-5.57,0-8.36,0-1.4-.47-2.15-2-2.11-.73,0-1.68.08-1.65-1s.93-1,1.69-1c1.07,0,2.15,0,3.23,0Z"/><path class="cls-1" d="M262.29,97.85c0-1.83,0-3.66,0-5.5,0-.87.14-1.67,1.3-1.69s1.32.8,1.33,1.66c0,2.65,0,5.3,0,8,0,2.25.24,2.45,2.5,2.59a2.68,2.68,0,0,1,1.11.12c.39.21,1,.7.93.92-.12.43-.61,1-1,1.07-1.7.11-3.41.08-5.11,0-1,0-1.14-.85-1.14-1.65,0-1.83,0-3.67,0-5.5Z"/><path class="cls-1" d="M0,97.64V92.12c0-.74.08-1.42,1.07-1.46A1.2,1.2,0,0,1,2.52,92c0,3.87,0,7.74,0,11.61,0,.8-.29,1.34-1.2,1.37S0,104.41,0,103.54c0-2,0-3.93,0-5.9Z"/><path class="cls-1" d="M341.31,98v5.52c0,.86-.22,1.52-1.26,1.51s-1.24-.69-1.24-1.54c0-3.74,0-7.49,0-11.23,0-.83.2-1.54,1.26-1.53s1.21.75,1.22,1.56c0,1.9,0,3.81,0,5.71Z"/><path class="cls-1" d="M131,97.86v5.49c0,.9-.16,1.66-1.31,1.64s-1.2-.74-1.2-1.56c0-3.66,0-7.32,0-11,0-.83,0-1.74,1.2-1.76s1.28,1,1.29,1.86C131,94.32,131,96.09,131,97.86Z"/><path class="cls-1" d="M281,90.08a2.71,2.71,0,0,1-.29-.87c0-.41.09-1,.36-1.19,1.1-.73,2.28-1.36,3.45-2,.15-.09.62,0,.63.14.07.42.21,1.1,0,1.25C284,88.3,282.67,89.05,281,90.08Z"/><path class="cls-1" d="M56.91,89.8c-.31-.26-.63-.4-.63-.55,0-.41,0-1,.24-1.18a32,32,0,0,1,3.4-2,.85.85,0,0,1,.75.26c.08.4.14,1.07-.08,1.22C59.42,88.39,58.16,89.06,56.91,89.8Z"/><path class="cls-2" d="M355.76,40c-.93-9.11-5.34-15.9-14.29-19.11a33,33,0,0,0-16.92-1.15c-8.43,1.43-15,5.67-19,13.41-3.39,6.58-4.15,13.61-3.36,20.92,1.19,11,7.29,18.89,18,21.93s21.61,1.87,32.27-1.18c1.25-.36,1.46-1.25,1.45-2.34,0-3.87,0-7.75,0-11.62,0-2.3-.26-2.51-2.41-1.8a50,50,0,0,1-18.62,2.09c-3.35-.19-6.38-1.24-8.2-4.39-.95-1.65-.83-2,1-2,4.76-.06,9.52,0,14.28,0v-.11c4.7,0,9.4,0,14.1,0,1.29,0,1.85-.42,1.83-1.74C355.82,48.65,356.19,44.31,355.76,40ZM334.47,42.2c-.76,0-1.51,0-2.27,0H325c-.7,0-1.26-.09-1.08-1.07a6.44,6.44,0,0,1,5.55-4.75c3.24-.36,5.62.79,6.64,3.2C336.9,41.49,336.49,42.15,334.47,42.2Z"/><path class="cls-2" d="M296.67,38.88c-1.05-9.47-7.19-16.29-16.36-18.64a35,35,0,0,0-13.79-.57c-10.88,1.57-18.26,7.46-21.79,17.91a39.11,39.11,0,0,0-1.62,15.78c.94,12.08,8.61,20.92,20.44,23.38a55.84,55.84,0,0,0,14.77.8A63.31,63.31,0,0,0,293.09,75a2.19,2.19,0,0,0,1.8-2.46c-.06-3.81,0-7.62,0-11.43,0-2.59-.14-2.73-2.55-1.94a49.62,49.62,0,0,1-18.44,2c-3.35-.19-6.36-1.27-8.18-4.4-1-1.7-.78-2.09,1.16-2.1,4.63,0,9.27,0,13.9,0h13.72c2.25,0,2.48-.06,2.5-2.32A114.28,114.28,0,0,0,296.67,38.88Zm-21.14,3.33h-4.37c-1.65,0-3.3,0-5,0-.8,0-1.36-.23-1.16-1.25.43-2.23,2.86-4.26,5.54-4.55,3.25-.36,5.64.83,6.6,3.29C278,41.67,277.64,42.19,275.53,42.21Z"/><path class="cls-1" d="M305.65,100.71c-.55-.86-.72-1.51.35-2.19a4.26,4.26,0,0,0-2.1-7.8c-1.5-.18-3-.07-4.55-.11-1.12,0-1.61.56-1.61,1.64v5.51h0c0,1.71,0,3.42,0,5.13,0,.9-.19,2,1.27,2.09s1.3-1.21,1.39-2.16a11.82,11.82,0,0,1,.08-1.7,5.89,5.89,0,0,1,.74-1.4c.45.27,1.05.44,1.33.83.75,1.09,1.28,2.35,2.08,3.4a3.18,3.18,0,0,0,1.82,1.07c1.24.19,1.53-.29,1-1.37S306.27,101.66,305.65,100.71Zm-3.14-3.57c-1.63,0-2.07-.46-2.08-2.18s.36-2.18,1.81-2.22c1.77,0,3,.83,3,2.19S304.2,97.14,302.51,97.14Z"/><path class="cls-1" d="M39.53,91a34.27,34.27,0,0,0-5.28-.34c-1.27-.07-1.85.52-1.83,1.81,0,1.83,0,3.67,0,5.51h0c0,1.9,0,3.8,0,5.7,0,.93.38,1.48,1.33,1.44a35.58,35.58,0,0,0,5.85-.39,6.52,6.52,0,0,0,5.23-6.78C44.82,94.37,42.87,91.64,39.53,91Zm1.68,10.11a5,5,0,0,1-5.13,1.66A2.22,2.22,0,0,1,35,101.2,25.83,25.83,0,0,1,35,97.79,24.36,24.36,0,0,1,35,94.37a2.19,2.19,0,0,1,1-1.53c1.53-.6,4.13.38,5.12,1.73A6.37,6.37,0,0,1,41.21,101.06Z"/><path class="cls-1" d="M117.45,101c-.72-1-.84-1.79.43-2.62a3.91,3.91,0,0,0,1.56-4.21A3.77,3.77,0,0,0,116.52,91a26.91,26.91,0,0,0-3.36-.48l0,.14h-2.09c-1.09,0-1.62.49-1.62,1.61q0,5.7,0,11.4c0,.81.29,1.34,1.2,1.36s1.26-.45,1.28-1.28a21.37,21.37,0,0,1,.08-2.66,4.91,4.91,0,0,1,.72-1.4c.46.26,1.08.41,1.36.8.76,1.09,1.26,2.36,2.09,3.39a3.92,3.92,0,0,0,2.12,1.2c1,.2,1.46-.27.8-1.31S118.05,101.84,117.45,101Zm-3.4-3.79c-1.75,0-2.11-.39-2.1-2.32,0-1.77.33-2.11,1.89-2.1,1.86,0,2.89.81,2.9,2.25S115.87,97.15,114.05,97.16Z"/><path class="cls-1" d="M384,103.47c-1.34-3.89-2.7-7.77-4.17-11.61-.24-.62-1-1-1.89-1.8-.8.82-1.6,1.29-1.85,2-1.46,3.77-2.8,7.6-4.12,11.42a3.87,3.87,0,0,0,.16,1.48,9.26,9.26,0,0,0,2.06-.5c.31-.15.34-.81.62-1.14s.8-1,1.24-1a13,13,0,0,1,4.14.11c.64.16.92,1.42,1.57,1.93a5.63,5.63,0,0,0,2,.59C383.8,104.44,384.09,103.88,384,103.47ZM378,100.05c-1.73,0-2-.42-1.52-2,.28-.9.61-1.78,1-2.66.08-.21.3-.36.45-.54.17.17.4.31.48.51.36.94.7,1.88,1,2.84C379.91,99.79,379.69,100.08,378,100.05Z"/><path class="cls-1" d="M253.65,103.4c-1.32-3.83-2.67-7.65-4.14-11.43-.26-.67-1.09-1.11-1.84-1.84-.8.65-1.56,1-1.75,1.46-1.52,4-2.94,8.09-4.38,12.15-.33,1,.23,1.42,1,1.24a3.79,3.79,0,0,0,1.53-1.12c.47-.47.79-1.42,1.27-1.49a12.59,12.59,0,0,1,4.33,0c.64.13,1,1.34,1.63,1.85a6.52,6.52,0,0,0,1.94.74C253.41,104.44,253.79,103.83,253.65,103.4Zm-6-3.36c-2,0-2.11-.12-1.46-2,.3-.9.63-1.79,1-2.66a2.13,2.13,0,0,1,.47-.53c.16.18.39.33.47.54.34.88.64,1.78.94,2.68C249.73,100,249.67,100,247.66,100Z"/><path class="cls-1" d="M151.68,103.39c-1.28-3.78-2.61-7.55-4-11.28-.26-.69-1-1.18-1.8-2-.87.73-1.73,1.1-2,1.71-1.49,3.91-2.88,7.86-4.23,11.81-.39,1.14.25,1.77,1.36,1.34.5-.19.85-.82,1.26-1.27s.75-1.25,1.2-1.31a13.73,13.73,0,0,1,4.34,0c.63.13,1,1.37,1.61,1.89a6.62,6.62,0,0,0,2,.72C151.49,104.45,151.83,103.84,151.68,103.39Zm-6-3.34c-1.79,0-2-.28-1.42-2,.39-1.1.92-2.16,1.38-3.23.52,1.09,1.12,2.15,1.53,3.28C147.74,99.77,147.49,100,145.65,100.05Z"/></g></g></svg>